<svg xmlns="http://www.w3.org/2000/svg" viewBox="0 0 289.92 352.11"><defs><style>.cls-1{fill:#ef5c4d;}.cls-2,.cls-7,.cls-9{fill:none;stroke-linecap:round;stroke-linejoin:round;}.cls-2{stroke:#ef5c4d;stroke-width:7px;stroke-dasharray:123 43 31 21 33;}.cls-3{fill:#ccc;}.cls-4{fill:#e2e2e2;}.cls-5{fill:#b1b6ba;}.cls-6{fill:#23c4a9;}.cls-7,.cls-9{stroke:#022c4f;}.cls-7{stroke-width:4px;}.cls-8{fill:#022c4f;}.cls-9{stroke-width:0.75px;}.cls-10{fill:#fff;}.cls-11{fill:#fcc742;}</style></defs><title>Ativo 1</title><g id="Camada_2" data-name="Camada 2"><g id="Layer_1" data-name="Layer 1"><circle class="cls-1" cx="144.87" cy="190.46" r="95.6"/><circle class="cls-2" cx="143.27" cy="190.46" r="123.9"/><circle class="cls-2" cx="138.96" cy="187.78" r="111.7"/><path class="cls-3" d="M96.17,191.16a10.39,10.39,0,0,0,1,.6S96.17,189.26,96.17,191.16Z"/><path class="cls-3" d="M100.47,173.06c.3-1.2.6-2.4.8-3.5C101.27,169.56,99.07,170.46,100.47,173.06Z"/><path class="cls-3" d="M97.07,159.56c-.9-1.3-1.9-2.6-2.8-4l-.5.8S95,157.66,97.07,159.56Z"/><path class="cls-4" d="M261.77,280.46l-6.4-24.7-6.8-1.8-12,1.6-18.7-3.6c-.1,0-.1-.1-.2-.1-28.8-6.2-46.1-47.9-46.1-47.9a87.75,87.75,0,0,1,13.9,2.1,7.21,7.21,0,0,1-.2-1.4L198,207s23,10.4,24.8,11.1,11.4,8.6,16.2,10.8a7.84,7.84,0,0,0,8.2-.7s5.4-5.9,1.6-12.2-20.8-22.4-34.7-30.5-40.8-14.8-40.8-14.8l6.4-7.7s10-13.6,13.5-20.3,4.3-20.3,4.8-22.8-1.3-12.9-1.3-12.9l-2.2-6.9s.3-4.8.9-6.1,1.3-5.7,0-7.3-6,0-6,0-11.1-11.4-16.7-15.2-14.8-13.5-39.1-13-38,19.6-38,19.6-8.7,6-11.7,25c-4,25.3,3.8,42.9,3.8,42.9s3.3,4.8,6.7,9.6l7.4-11.5c.1.8,31.6,39.5,73.8,18.8,0,0-21.8,16.8-45.3,12.7a68.61,68.61,0,0,1-33.2-15.9c2.2,3.2,4.1,5.7,4.5,6.1s.2,1.9-.2,3.9h0s23,15.2,41.5,9.1,24.3-5,24.3-5-28,22.4-50.8,10.7c-10.6-5.5-14.6-9.1-15.8-11.3-.7,2.8-1.5,5.3-1.5,5.3l-2.4,16.8c.6,3.5,1.8,9.4,4.1,19.1,7.5,32,17.8,30.7,34.8,55.1s65.3,48.1,65.3,48.1l-.6,1.8a61.72,61.72,0,0,0-.6,18.3c1.3,8.8,5.3,12.6,10.8,13.2a5.27,5.27,0,0,0,2.2-.1c-3.3-4.4-7.1-13.2-3.3-28.7,0,0,1.2-9.3-14.4-15.3s-79.9-49.8-76.5-83.1c0,0,4.8,27.2,25.8,31s16.2,6.3,16.2,6.3l29.2,17.7a19.33,19.33,0,0,1,10.6.2,78.3,78.3,0,0,0,15.1,2.3l22.5-.6,6.1,6.7,12.1,7.7,6.7-1.2,1.3-4.5Z"/><path class="cls-5" d="M100.47,173.06c-1.4-2.6.8-3.5.8-3.5.4-2,.6-3.6.2-3.9s-2.2-2.9-4.5-6.1a32.67,32.67,0,0,1-3.3-3.2l.5-.8c-3.4-4.8-6.7-9.6-6.7-9.6a56.06,56.06,0,0,0-10.9-7.6c-5.5-2.7-29.3-24.8-31.3-27.8s-8-4.8-12.3-1.8-1.2,8.7-1.2,8.7l6.6,11.2,11.1,14.9s22.3,25,27,31.9c4,5.9,16,13.5,19.5,15.6,0-1.9,1,.6,1,.6a10.39,10.39,0,0,1-1-.6c0,.7.2,1.9.5,4l2.4-16.8C99.07,178.36,99.77,175.86,100.47,173.06Z"/><path class="cls-5" d="M116.27,184.36c22.8,11.8,50.8-10.7,50.8-10.7s-5.8-1.1-24.3,5-41.5-9.1-41.5-9.1h0c-.2,1.1-.5,2.3-.8,3.5C101.77,175.26,105.67,178.86,116.27,184.36Z"/><path class="cls-5" d="M130.27,175.56c23.5,4.2,45.3-12.7,45.3-12.7-42.3,20.8-73.7-18-73.8-18.8l-7.4,11.5c1,1.4,1.9,2.7,2.8,4A68.09,68.09,0,0,0,130.27,175.56Z"/><path class="cls-5" d="M144.37,254.56c-21-3.8-25.8-31-25.8-31-3.4,33.2,60.9,77.1,76.5,83.1s14.4,15.3,14.4,15.3c-3.8,15.6,0,24.4,3.3,28.7a6,6,0,0,0,4.7-3.9s9.3-23.7,13.6-30.3-3.8-12.1-3.8-12.1-9.8-5.3-16-10.7-22-14.9-22-14.9a4.2,4.2,0,0,1,.5-.2l-29.2-17.7S165.27,258.36,144.37,254.56Z"/><path class="cls-5" d="M217.77,251.86c-24.9-13-31.1-39.6-32.3-45.9-2.2-.6-6.3-1.3-13.9-2.1C171.57,204,189,245.76,217.77,251.86Z"/><path class="cls-6" d="M228.07,210.66h0a2.87,2.87,0,0,1-.2-4.1l.8-.9a3,3,0,0,1,4.2-.2c.1.1.2.1.2.2a3,3,0,0,1,0,4.2l-.9.8A3,3,0,0,1,228.07,210.66Zm-10.4-8.4c-1.3-.9-2.8-1.9-4.2-2.8a2.88,2.88,0,0,1-.9-3.9l.6-1a2.82,2.82,0,0,1,4-.9l4.5,3a3,3,0,0,1,.7,4.1l-.7,1A3,3,0,0,1,217.67,202.26Zm-15.9-9.5a224.59,224.59,0,0,0-34.9-14,2.78,2.78,0,0,1-1.9-3.5l.3-1.2a2.83,2.83,0,0,1,3.6-2,222.46,222.46,0,0,1,36.1,14.5,3,3,0,0,1,1.3,4l-.6,1.1A2.92,2.92,0,0,1,201.77,192.76Z"/><path class="cls-6" d="M99.47,168.06c-5.3-4-18.6-14.1-30.2-23.9a2.87,2.87,0,0,1-.3-4.1l.8-.9a2.87,2.87,0,0,1,4.1-.3c11.5,9.7,24.7,19.7,29.9,23.6a2.89,2.89,0,0,1,.6,4l-.7,1A3,3,0,0,1,99.47,168.06Zm-40.7-33c-1.4-1.3-2.7-2.6-3.9-3.7a2.9,2.9,0,0,1,.1-4.2l.9-.8a2.84,2.84,0,0,1,4,.1c1.1,1.1,2.3,2.3,3.7,3.5a2.87,2.87,0,0,1,.2,4.1l-.8.9A3.08,3.08,0,0,1,58.77,135.06Z"/><path class="cls-6" d="M147.47,84.06s5.4-17.2,30.6-9.7c0,0-14.8-12.8-33.3-12.2-21.4.6-27.9,12.4-27.9,12.4Z"/><path class="cls-7" d="M191.57,93.46a58.43,58.43,0,0,1,5.5,26.7c-1,32.4-28.4,56.3-60.8,55.3s-57.7-26.6-56.6-59.1a58.76,58.76,0,0,1,109-28.5"/><path class="cls-7" d="M103.87,70.66s23.1-7.9,42.4,6c19.1,13.8,23.2,34.6,22.2,40.9-1.3,8.2-8.3,37.5-45.5,42.6-20.8,2.9-34.6-11.9-34.6-11.9"/><path class="cls-8" d="M184.87,207.36c-2.6-.7-5.3-1.3-8-1.8-1.3-.2-2.7-.5-4-.6a26.93,26.93,0,0,0-4-.3h0a.47.47,0,0,1-.5-.5.46.46,0,0,1,.4-.5c1.4-.2,2.8-.3,4.2-.4s2.8-.1,4.2-.1c2.8,0,5.6.2,8.4.4h0a2,2,0,1,1-.4,4C185.17,207.36,185,207.36,184.87,207.36Z"/><path class="cls-7" d="M185.27,205.36c1.2.2,2.4.4,3.7.7,18.9,3.8,38.8,15.3,44.1,20.5s11,5,13.8,2.7a8.87,8.87,0,0,0,2.4-10.2c-3.9-8.9-10.1-16.4-28.7-27.8-17.6-10.9-36.1-18.5-48.8-20.3"/><path class="cls-7" d="M85.17,143.16s-26.8-18.8-36.9-31c-7-8.6-12-6.3-14.6-4.7-4.4,2.6-3.6,10-1.6,13.4,4,6.6,39.7,59.1,64.2,70.9"/><path class="cls-8" d="M234.87,280.76a44.63,44.63,0,0,1-2.4-9.9.56.56,0,0,1,.5-.6.6.6,0,0,1,.6.3,40,40,0,0,0,4.8,8.3,2,2,0,1,1-3.2,2.4,2.19,2.19,0,0,1-.3-.5Z"/><path class="cls-7" d="M186.07,205.46s3.4,16.2,9.5,25.3c5.6,8.4,21.3,28.4,53.3,22.1a6.35,6.35,0,0,1,7.3,4.5l8.6,29.6a6.34,6.34,0,0,1-7.5,8,29.85,29.85,0,0,1-20.6-15.3"/><path class="cls-7" d="M237,280.26c-42,7.7-67.4-12.1-79.2-23.5"/><path class="cls-7" d="M191.07,278.76c9.8,9.8,27.6,21.3,36.5,26.9a7.19,7.19,0,0,1,2.8,9.1l-13.5,31a7.27,7.27,0,0,1-12.5,1.4c-4.7-6.3-8.4-16.3-1.8-30.3,0,0-41.1-12.9-72.7-51.6-22.1-27.1-29.6-44-33-64.4-2.8-17.3,5.4-33.4,5.4-33.4"/><path class="cls-7" d="M171.57,165.66v5.4s-13.8,10.3-37.4,9-30.2-10.5-30.2-10.5v-3.9"/><path class="cls-7" d="M189.37,109.46h-8.2a5,5,0,0,0-5,4.5l-1.9,18a5,5,0,0,0,5,5.6h8.2a5,5,0,0,0,5-4.5l1.9-18A5.05,5.05,0,0,0,189.37,109.46Z"/><path class="cls-7" d="M190.87,136.06A5.6,5.6,0,0,1,186,139h-8.9a5.38,5.38,0,0,1-5.5-5.8l2.1-18.9a5.43,5.43,0,0,1,5.5-4.7h2"/><circle class="cls-7" cx="192.22" cy="89.54" r="3"/><path class="cls-9" d="M193.77,89.76a1.57,1.57,0,0,1-1.7,1.4"/><line class="cls-7" x1="191.97" y1="92.86" x2="190.37" y2="109.56"/><path class="cls-8" d="M105.17,71.86s20.5-9,35.4,2,19.5,15.5,24.2,27.8,1.5,26.7-4.7,35.7-22,22.9-44.4,21.3-32.1-9.5-35.1-25.7S79.87,85.36,105.17,71.86Z"/><path class="cls-10" d="M112.57,70.76s-29.5,10-28.8,50c0,0,17.3-50.1,61.2-37.5C145.07,83.26,132.57,69.16,112.57,70.76Z"/><path class="cls-7" d="M231,223.56a13.87,13.87,0,0,1,13.7-11"/><path class="cls-7" d="M51.17,115.46s-4.7,12.6-16,10.3"/><line class="cls-7" x1="226.27" y1="280.46" x2="224.77" y2="252.86"/><line class="cls-7" x1="195.07" y1="312.56" x2="209.47" y2="293.66"/><path class="cls-7" d="M155,178.46s-10.5,23.8,8,54.7c14.5,24.3-19.2,30-32.9,11.7s-23.8-43.4-15.6-68.5"/><path class="cls-7" d="M102.87,73.16s7.6-15.3,41.4-13.6,44.9,29.7,44.9,29.7,2.5-4.2,5.1-1.8-.6,6.3-.6,6.3l.2,5.8s6.3,33.2-7.9,52.3-14.2,16.8-14.2,16.8v2.4"/><path class="cls-11" d="M43.47,113.46c-11.5,10.4-22.7,3.9-29.8-3.9-5-5.5-21.7-30.2-9-41.6.3-.2.8-.9,1.7-.7,1.6,1.4,4.6,3.9,5,4.2.9,1-.4,1.9-.6,2.3-1.1,3-1.4,5-.7,9.3.9,5.2,4.9,12.9,9,17.5,3.3,3.6,7.6,7.7,15.5,7.4.2-.5-.8-1.8-1-2l-7.8-8.3a2.73,2.73,0,0,0-1.2.6c-.4.3-1.5,1.8-1.8,2.1-1.3,1.1-4.4-3.1-4.9-3.6a12.75,12.75,0,0,1,1.5-2.9l7.7-6.9c.8-.6,2.1,1.1,3,1.7L42,101.46a57,57,0,0,0,5.8,6.3C48,108.86,45.07,112.06,43.47,113.46Z"/><path class="cls-11" d="M62.87,73.36l3.8,3.4c2.3,2,.8,3.4-.6,4.9-.4.5-1.9,1-2.5.5l-6.1-5.4c-.3-.3-4.3-4.2-4.7-4.4l-11.1-9.9-8.1,9.1,14.2,13.6c.3.3,6.8,5,7.1,5.3s.5,1.1.2,1.5c-1,1.3-2.6,3.8-3,4.2-.7.7-2,.1-2.5-.3L32.87,81c-.3-.3-3.8-3.8-5.9-6-7.6-7.6-15.4-14.6-7-23.9,8.5-9.5,21,1.2,25.3,5.1Zm-38.7-17.6c-1.6,1.8-.1,6.2,1.2,7.4,1.1,1,2.7,3.6,3.8,3.4l5.6-6.3a9.45,9.45,0,0,0,1.3-2.4C33.27,56.56,27.57,51.86,24.17,55.76Z"/><path class="cls-11" d="M113.27,55.66c-1.3.7-2.3,1.3-3.9,1-4.8-5.9-6.8-7.5-9.9-12.3l-11.6-15.2-.1.3a273.46,273.46,0,0,0,7.1,33.7,38.91,38.91,0,0,1-5.6,4.8l-1.3.7c-6.4-6.6-13.6-14.9-20.2-22.5,1.3,7.6,5.3,16.3,8.4,27.6.1.3-.8.9-1.1,1.1a58.39,58.39,0,0,0-5.7,3l-.6-1.2c-.2-.3-2.2-5.8-3.1-8.6-1.7-4.8-7-21.7-10.2-30.7a17.42,17.42,0,0,0-1.1-3.2c-.1-.4-2.7-5.8-1.1-6.7s6.4-2.5,6.7-2.3c7.3,7.7,14.2,16.6,23.3,25.8a.37.37,0,0,0,.2-.3c-1.9-11.8-3.8-23.9-4.7-30.6a43.55,43.55,0,0,0-.6-4.6c.4-.8,4.2-3,4.7-3.2,2.1-1.1,5.7,4.9,7.3,6.9,1.5,1.8,3.2,4,4.8,6,1.3,1.8,3.7,5.2,5.4,7.4,2.4,3.2,6,7.8,9,11.7,1.7,2,6.8,7.4,7,7.8C117.37,53.76,114.07,55.26,113.27,55.66Z"/><path class="cls-11" d="M131.07,21.76c-.4.1-5.1.3-5.6.3l-5.4.7,2.8,21.9,8.9-1.1a9.16,9.16,0,0,1,2.8.1,37.64,37.64,0,0,1,1.5,6.2c.3,2.7-.9,2.2-2.9,2.5-.4.1-4.7.3-5.1.3L117.77,54a4.85,4.85,0,0,1-1.2-1.7c-.2-1.2.1-.8-.1-2.7l-2.7-21.2-2.3-19a55.07,55.07,0,0,1-.7-6.3c2.2-.6,4.5-1,6.8-1.5l9.5-1.4c1.9-.2,2.8,5.8,2.9,6.7a6.48,6.48,0,0,1-2.2,1l-7.4.5c-1.9.2-2.1-.3-1.8,2,0,.3.6,3.1.8,4.7,1.1.5,2.2.2,3.8-.1,8.5-1,8.7-1.6,9.4,4.1C132.67,19.86,132.37,21.66,131.07,21.76Z"/><path class="cls-11" d="M153.67,7.06c-.4,0-3-.2-4.6-.4a9.66,9.66,0,0,0-.9,3.2l-.4,5.6,8.7.6a10.51,10.51,0,0,1,.8,3.4c0,.3-.2,3.6-1.6,3.5-.4,0-5.4-.7-8-1.1-.6,2.6-.8,7.7-1.1,11.6l-.7,15.6c-.2,1.8-.6,3.6-2.3,3.5-3.7-.2-5.2-.4-5.1-2.9l2.2-34.1c.1-1.4,1.5-10.4,1.4-14.8.6-.9,3.5-.8,5-.7l13.5.9a9.89,9.89,0,0,0-.2,2.9C160.17,8.06,156.87,7.26,153.67,7.06Z"/><path class="cls-11" d="M162.57,53.36c-2.4-.5-1.9-2.7-1.6-4.1L168,15c.9-4.3,1.8-8.9,2.2-12.8.6-.4,4.7.1,5.1.2,2,.4,2.1,1.1,1.9,3.2l-8.4,39.8c-.3,2.6-.9,5.3-1.2,8C167.37,53.36,163.37,53.46,162.57,53.36Z"/><path class="cls-11" d="M196.57,23.06a45.24,45.24,0,0,0-8.4,8.6c-.8,1.1-1.8,2.6-2.5,3.8a53.58,53.58,0,0,0-3.6,7.2c-1.8,4.9-.6,9.9,4.8,11.8.4.1.6.1,1,.2,2.1.7.5,6.3.3,6.9-.1.4-1.4.8-1.7.7s-.7-.3-1.1-.4-2.6-1.6-3.9-2.4a12.81,12.81,0,0,1-2-1.1c-6.9-6.2-5.6-12.6-3.9-17.4.1-.3,2.5-6.1,4-8.9a67,67,0,0,1,7.1-10.5c.4-.5,12.8-10.8,16.9-9.4.3.1.7.7,1.1,1.2-.3,1.8-.4,4-.6,4.5C203.87,18.06,198.77,21.26,196.57,23.06Z"/><path class="cls-11" d="M217.87,70.56l-2.7,4.4c-1.6,2.6-3.2,1.4-4.9.3-.6-.3-1.4-1.7-1-2.4l4.3-6.9c.2-.4,3.4-5,3.6-5.3l7.9-12.6-10.3-6.4-11,16.3-4,7.9a1.84,1.84,0,0,1-1.5.5c-1.4-.8-4.2-2-4.6-2.3-.8-.5-.5-2-.1-2.5l11.8-19c.2-.4,3.1-4.4,4.9-6.8,6.2-8.7,11.8-17.6,22.4-11,10.8,6.8,2.3,20.9-.8,25.8Zm10.8-41.1c-2-1.3-6.1.9-7,2.4-.8,1.3-3.1,3.2-2.7,4.4l7.1,4.5a6.07,6.07,0,0,0,2.6.8C229.37,38.46,233.07,32.16,228.67,29.46Z"/><path class="cls-11" d="M232.87,97c-3.4-3.4-3.4-9.7.3-15.1.9-1.4,9-14.2,8-16.4l-8.1,7.1-10.6,10.5c-.6.6-1.7-.2-1.8-.2-.3-.3-2.4-2.4-3.5-3.6a7,7,0,0,1,.5-1.8,45,45,0,0,1,3.3-3.9L240.27,56l12.1-12.1a5.45,5.45,0,0,1,1.1-1.7,3.65,3.65,0,0,1,2,.6c3,2.9,3.2,3.1,3.5,3.4,4.4,4.4,11.3,13.7,3.1,21.8-5.4,5.4-13.1,1.8-13.2,1.9s-.6,3.5-1.4,5.1c-1.3,2.4-3.6,4.9-5,8.3-2.4,5.5-3.1,10.8-3.4,11C238.67,94.86,233.77,97.76,232.87,97ZM255,54l-.9-.9c-.2.6-1.6,1.6-1.9,1.9l-5.4,5.3.5.9c1.7.8,6.2,2.7,8.4.6C257.57,60,257,55.76,255,54Z"/><path class="cls-11" d="M272.17,97.56c-.2-.4-2.6-4.4-2.7-4.9l-3-4.5-18.4,12.3,5,7.4a20,20,0,0,1,1.2,2.5,36.42,36.42,0,0,1-4.9,4.1c-2.3,1.5-2.4.2-3.5-1.5-.2-.4-2.3-4.1-2.6-4.4l-5.8-8.6c.2-.7.7-1.7,1-1.8,1-.7.8-.2,2.4-1.3L258.67,85l15.9-10.5a34.44,34.44,0,0,1,5.3-3.4c1.5,1.7,2.9,3.6,4.4,5.4l5.5,7.9c1.1,1.6-3.9,5.1-4.7,5.6a5.89,5.89,0,0,1-1.9-1.5l-3.8-6.4c-1.1-1.6-.7-2-2.6-.8-.3.2-2.5,1.9-3.9,2.9,0,1.2.9,2.1,1.8,3.4,4.6,7.1,5.3,7.1.6,10.3C274.67,98.16,273,98.66,272.17,97.56Z"/></g></g></svg>